<?xml version="1.0" encoding="utf-8"?>
<!-- Generator: Adobe Illustrator 23.0.0, SVG Export Plug-In . SVG Version: 6.00 Build 0)  -->
<svg version="1.1" id="sdg_x5F_icon" xmlns="http://www.w3.org/2000/svg" xmlns:xlink="http://www.w3.org/1999/xlink" x="0px"
	 y="0px" viewBox="0 0 500 90" style="enable-background:new 0 0 500 90;" xml:space="preserve">
<path style="fill:#009DDA;" d="M288.6,64.3c-2,2.4-4.8,4.3-8.5,5.7c-3.7,1.4-7.8,2.1-12.3,2.1c-4.7,0-8.9-1-12.4-3
	c-3.6-2-6.3-5-8.3-8.9c-2-3.9-3-8.5-3.1-13.8l0-3.7c0-5.4,0.8-10.2,2.7-14.1c1.8-4,4.4-7.1,7.9-9.2c3.4-2.1,7.5-3.2,12.1-3.2
	c6.5,0,11.5,1.5,15.2,4.5c3.7,3.1,5.9,7.5,6.6,13.4l-10.9,0.1c-0.5-3.1-1.6-5.4-3.4-6.8c-1.7-1.4-4.1-2.1-7.1-2.1
	c-3.8,0-6.7,1.5-8.7,4.4c-2,2.9-3,7.2-2.9,12.8l0,3.5c0,5.7,1.2,10,3.3,12.9c2.2,2.9,5.4,4.3,9.6,4.3c4.2,0,7.2-0.9,9-2.8l-0.1-9.4
	l-10.2,0.1l-0.1-8.3l21.4-0.1L288.6,64.3z"/>
<path style="fill:#009DDA;" d="M381.3,59.3l-19.7,0.1L358,70.7L346,70.8l19.9-54.6l10.4-0.1l20.8,54.4l-11.9,0.1L381.3,59.3z
	 M364.6,50.3l13.6-0.1l-7-20.3L364.6,50.3z"/>
<polygon style="fill:#009DDA;" points="411.7,61.3 435.5,61.1 435.6,70.2 400.5,70.4 400.1,15.9 411.4,15.8 "/>
<path style="fill:#009DDA;" d="M468.5,55.6c0-2.1-0.8-3.7-2.3-4.9c-1.5-1.1-4.2-2.3-8.1-3.5c-3.9-1.2-7-2.5-9.3-3.7
	c-6.2-3.3-9.3-7.8-9.4-13.4c0-2.9,0.8-5.6,2.4-7.9c1.6-2.3,4-4.1,7.1-5.5c3.1-1.3,6.6-2,10.4-2c3.9,0,7.4,0.7,10.4,2
	c3.1,1.4,5.4,3.4,7.1,5.9c1.7,2.6,2.6,5.5,2.6,8.7l-11.2,0.1c0-2.5-0.8-4.4-2.4-5.8c-1.6-1.4-3.8-2.1-6.6-2c-2.7,0-4.9,0.6-6.4,1.8
	c-1.5,1.2-2.3,2.7-2.3,4.6c0,1.8,0.9,3.2,2.7,4.4c1.8,1.2,4.4,2.3,7.9,3.3c6.4,1.9,11.1,4.2,14,7.1c2.9,2.8,4.4,6.4,4.5,10.6
	c0,4.7-1.7,8.4-5.3,11.1c-3.6,2.7-8.3,4.1-14.4,4.1c-4.2,0-8-0.7-11.5-2.2c-3.5-1.5-6.1-3.6-7.9-6.3c-1.8-2.7-2.8-5.7-2.8-9.3
	l11.3-0.1c0,6,3.7,9,10.8,8.9c2.7,0,4.7-0.6,6.2-1.7C467.8,59.1,468.5,57.6,468.5,55.6"/>
<path style="fill:#5FBA46;" d="M306.8,36.1c0.7-1.2,1.5-2.2,2.5-3.2l-8.1-8.9c-2,2-3.8,4.2-5.2,6.7L306.8,36.1z"/>
<path style="fill:#D19F2A;" d="M326.7,29.8c1.2,0.6,2.4,1.3,3.4,2.1l8.2-8.9c-2.1-1.9-4.6-3.4-7.2-4.5L326.7,29.8z"/>
<path style="fill:#C22033;" d="M345.4,32.4l-10.8,5.4c0.5,1.2,0.9,2.5,1.1,3.8l12-1.1C347.3,37.7,346.6,35,345.4,32.4"/>
<path style="fill:#2D9A47;" d="M333.8,36.3l10.8-5.4c-1.3-2.5-3-4.7-5-6.7l-8.2,8.9C332.4,34,333.2,35.1,333.8,36.3"/>
<path style="fill:#48773C;" d="M304.7,43.9c0-0.2,0-0.5,0-0.7l-12-1.1c0,0.6-0.1,1.2-0.1,1.8c0,2.3,0.3,4.5,0.8,6.7l11.6-3.3
	C304.8,46.2,304.7,45.1,304.7,43.9"/>
<path style="fill:#FDB714;" d="M332.3,53.8c-0.9,1-1.8,2-2.9,2.8l6.3,10.3c2.4-1.6,4.5-3.5,6.2-5.8L332.3,53.8z"/>
<path style="fill:#EF412A;" d="M335.9,43.9c0,1.1-0.1,2.2-0.4,3.3l11.6,3.3c0.5-2.1,0.8-4.4,0.8-6.7c0-0.6,0-1.1-0.1-1.7l-12,1.1
	C335.8,43.6,335.9,43.8,335.9,43.9"/>
<path style="fill:#F99D25;" d="M308.4,54.1l-9.6,7.3c1.8,2.2,3.9,4.1,6.3,5.7l6.3-10.3C310.3,56,309.3,55.1,308.4,54.1"/>
<path style="fill:#007DBB;" d="M304.9,41.5c0.2-1.4,0.6-2.7,1.2-3.9l-10.8-5.4c-1.2,2.5-2,5.3-2.4,8.2L304.9,41.5z"/>
<path style="fill:#8F1838;" d="M334.3,67.8l-6.3-10.3c-1.2,0.7-2.4,1.2-3.7,1.5l2.2,11.9C329.2,70.3,331.9,69.2,334.3,67.8"/>
<path style="fill:#00ADD8;" d="M335,48.9c-0.4,1.2-1,2.4-1.7,3.5l9.6,7.3c1.6-2.3,2.8-4.7,3.6-7.4L335,48.9z"/>
<path style="fill:#F36E24;" d="M322.5,59.4c-0.7,0.1-1.5,0.2-2.2,0.2c-0.6,0-1.2,0-1.8-0.1l-2.2,11.9c1.3,0.2,2.7,0.3,4.1,0.3
	c1.5,0,3-0.1,4.5-0.4L322.5,59.4z"/>
<path style="fill:#EA1D2D;" d="M321.3,28.4c1.3,0.1,2.6,0.3,3.9,0.7l4.3-11.3c-2.6-0.9-5.3-1.4-8.2-1.6V28.4z"/>
<path style="fill:#E01A83;" d="M316.7,59.1c-1.4-0.3-2.6-0.8-3.8-1.4L306.5,68c2.4,1.4,5.1,2.4,7.9,3L316.7,59.1z"/>
<path style="fill:#1B3668;" d="M315.6,29.1c1.3-0.4,2.6-0.6,3.9-0.7V16.3c-2.9,0.1-5.7,0.6-8.3,1.5L315.6,29.1z"/>
<path style="fill:#CD8B2A;" d="M307.3,52.7c-0.8-1.1-1.4-2.4-1.8-3.7l-11.6,3.3c0.9,2.8,2.2,5.3,3.8,7.7L307.3,52.7z"/>
<path style="fill:#00558A;" d="M310.6,31.7c1-0.8,2.1-1.5,3.3-2l-4.4-11.3c-2.6,1.1-5,2.6-7.1,4.4L310.6,31.7z"/>
<path style="fill:#009DDA;" d="M31,34c0-0.8-0.3-1.5-0.9-1.9c-0.6-0.5-1.6-0.9-3.1-1.4c-1.5-0.5-2.6-1-3.6-1.4
	c-3-1.5-4.5-3.5-4.5-6.1c0-1.3,0.4-2.4,1.1-3.4c0.7-1,1.8-1.7,3.2-2.3c1.4-0.5,2.9-0.8,4.6-0.8c1.7,0,3.2,0.3,4.5,0.9
	c1.3,0.6,2.4,1.4,3.1,2.5c0.7,1.1,1.1,2.4,1.1,3.8H31c0-0.9-0.3-1.7-0.9-2.2c-0.6-0.5-1.4-0.8-2.4-0.8c-1,0-1.8,0.2-2.4,0.7
	c-0.6,0.4-0.9,1-0.9,1.7c0,0.6,0.3,1.1,1,1.6c0.6,0.5,1.8,1,3.4,1.5c1.6,0.5,2.9,1.1,4,1.7c2.5,1.4,3.8,3.4,3.8,6
	c0,2-0.8,3.6-2.3,4.8c-1.5,1.2-3.6,1.7-6.3,1.7c-1.9,0-3.6-0.3-5.1-1c-1.5-0.7-2.7-1.6-3.4-2.8c-0.8-1.2-1.2-2.5-1.2-4.1h5.6
	c0,1.2,0.3,2.2,1,2.8c0.6,0.6,1.7,0.9,3.1,0.9c0.9,0,1.7-0.2,2.2-0.6C30.7,35.3,31,34.7,31,34"/>
<path style="fill:#009DDA;" d="M58,17v15.2c0,1.7-0.4,3.2-1.1,4.5c-0.7,1.3-1.8,2.2-3.2,2.9c-1.4,0.7-3,1-4.9,1
	c-2.8,0-5.1-0.7-6.7-2.2c-1.6-1.5-2.5-3.5-2.5-6V17h5.6v15.4c0.1,2.5,1.2,3.8,3.5,3.8c1.2,0,2-0.3,2.6-1c0.6-0.6,0.9-1.7,0.9-3.1V17
	H58z"/>
<path style="fill:#009DDA;" d="M73.8,34c0-0.8-0.3-1.5-0.9-1.9c-0.6-0.5-1.6-0.9-3.1-1.4c-1.5-0.5-2.6-1-3.6-1.4
	c-3-1.5-4.5-3.5-4.5-6.1c0-1.3,0.4-2.4,1.1-3.4c0.7-1,1.8-1.7,3.2-2.3c1.4-0.5,2.9-0.8,4.6-0.8c1.7,0,3.2,0.3,4.5,0.9
	s2.4,1.4,3.1,2.5c0.7,1.1,1.1,2.4,1.1,3.8h-5.6c0-0.9-0.3-1.7-0.9-2.2c-0.6-0.5-1.4-0.8-2.4-0.8c-1,0-1.8,0.2-2.4,0.7
	c-0.6,0.4-0.9,1-0.9,1.7c0,0.6,0.3,1.1,1,1.6c0.6,0.5,1.8,1,3.4,1.5c1.6,0.5,2.9,1.1,4,1.7c2.5,1.4,3.8,3.4,3.8,6
	c0,2-0.8,3.6-2.3,4.8c-1.5,1.2-3.6,1.7-6.3,1.7c-1.9,0-3.6-0.3-5.1-1c-1.5-0.7-2.7-1.6-3.4-2.8c-0.8-1.2-1.2-2.5-1.2-4.1h5.6
	c0,1.2,0.3,2.2,1,2.8c0.6,0.6,1.7,0.9,3.1,0.9c0.9,0,1.7-0.2,2.2-0.6C73.5,35.3,73.8,34.7,73.8,34"/>
<polygon style="fill:#009DDA;" points="100.8,21.3 93.9,21.3 93.9,40.2 88.3,40.2 88.3,21.3 81.4,21.3 81.4,17 100.8,17 "/>
<path style="fill:#009DDA;" d="M114.8,35.8h-7.7l-1.3,4.3h-6l8.5-23.2h5.3l8.6,23.2h-6L114.8,35.8z M108.5,31.5h5l-2.5-8.1
	L108.5,31.5z"/>
<rect x="124.6" y="17" style="fill:#009DDA;" width="5.6" height="23.2"/>
<polygon style="fill:#009DDA;" points="153.8,40.2 148.2,40.2 140,25.7 140,40.2 134.4,40.2 134.4,17 140,17 148.2,31.4 148.2,17 
	153.8,17 "/>
<path style="fill:#009DDA;" d="M171.2,35.8h-7.7l-1.3,4.3h-6l8.5-23.2h5.3l8.6,23.2h-6L171.2,35.8z M164.8,31.5h5l-2.5-8.1
	L164.8,31.5z"/>
<path style="fill:#009DDA;" d="M180.5,40.2V17h8.3c3,0,5.3,0.5,6.8,1.6c1.6,1.1,2.3,2.7,2.3,4.8c0,1.2-0.3,2.2-0.8,3.1
	c-0.6,0.9-1.4,1.5-2.4,1.9c1.2,0.3,2.1,0.9,2.8,1.8c0.6,0.9,1,1.9,1,3.2c0,2.3-0.7,4-2.2,5.1c-1.4,1.1-3.6,1.7-6.4,1.7H180.5z
	 M186.1,26.6h2.9c1.2,0,2.1-0.2,2.6-0.7c0.5-0.4,0.8-1.1,0.8-1.9c0-1-0.3-1.7-0.8-2.1c-0.6-0.4-1.5-0.6-2.7-0.6h-2.7V26.6z
	 M186.1,30.3v5.6h3.7c1,0,1.8-0.2,2.3-0.7c0.5-0.5,0.8-1.1,0.8-2c0-1.9-1-2.9-2.9-2.9H186.1z"/>
<polygon style="fill:#009DDA;" points="207.5,35.9 217.3,35.9 217.3,40.2 201.9,40.2 201.9,17 207.5,17 "/>
<polygon style="fill:#009DDA;" points="234.4,30.3 225.6,30.3 225.6,35.9 236,35.9 236,40.2 220,40.2 220,17 236,17 236,21.3 
	225.6,21.3 225.6,26.2 234.4,26.2 "/>
<path style="fill:#009DDA;" d="M19,71.6V48.8h7.3c2,0,3.8,0.5,5.4,1.4c1.6,0.9,2.9,2.2,3.8,3.9c0.9,1.7,1.4,3.5,1.4,5.6v1
	c0,2.1-0.4,4-1.3,5.6c-0.9,1.7-2.1,2.9-3.7,3.9c-1.6,0.9-3.4,1.4-5.4,1.4H19z M24.5,53.1v14.3h1.9c1.6,0,2.8-0.6,3.6-1.7
	c0.8-1.1,1.3-2.8,1.3-5v-1c0-2.2-0.4-3.9-1.3-5c-0.8-1.1-2.1-1.7-3.7-1.7H24.5z"/>
<polygon style="fill:#009DDA;" points="52.6,61.9 44.5,61.9 44.5,67.4 54.2,67.4 54.2,71.6 39,71.6 39,48.8 54.2,48.8 54.2,53.1 
	44.5,53.1 44.5,57.9 52.6,57.9 "/>
<polygon style="fill:#009DDA;" points="66.2,65.4 70.7,48.8 76.8,48.8 69.2,71.6 63.2,71.6 55.6,48.8 61.7,48.8 "/>
<polygon style="fill:#009DDA;" points="92,61.9 84,61.9 84,67.4 93.5,67.4 93.5,71.6 78.5,71.6 78.5,48.8 93.6,48.8 93.6,53.1 
	84,53.1 84,57.9 92,57.9 "/>
<polygon style="fill:#009DDA;" points="100.9,67.4 109.6,67.4 109.6,71.6 95.4,71.6 95.4,48.8 100.9,48.8 "/>
<path style="fill:#009DDA;" d="M130,60.7c0,2.2-0.4,4.2-1.2,5.9c-0.8,1.7-2,3-3.5,3.9c-1.5,0.9-3.2,1.4-5.2,1.4
	c-1.9,0-3.7-0.4-5.2-1.3c-1.5-0.9-2.7-2.2-3.5-3.8c-0.8-1.7-1.3-3.6-1.3-5.7v-1.3c0-2.2,0.4-4.2,1.2-5.9c0.8-1.7,2-3,3.5-3.9
	c1.5-0.9,3.3-1.4,5.2-1.4c1.9,0,3.6,0.5,5.2,1.4c1.5,0.9,2.7,2.2,3.5,3.9c0.8,1.7,1.3,3.6,1.3,5.8V60.7z M124.4,59.7
	c0-2.3-0.4-4-1.1-5.2c-0.8-1.2-1.8-1.8-3.2-1.8c-2.8,0-4.2,2.1-4.4,6.2l0,1.7c0,2.2,0.4,3.9,1.1,5.1c0.7,1.2,1.8,1.8,3.3,1.8
	c1.4,0,2.5-0.6,3.2-1.8c0.8-1.2,1.1-2.9,1.1-5.1V59.7z"/>
<path style="fill:#009DDA;" d="M137.7,63.9v7.7h-5.5V48.8h9.1c1.7,0,3.3,0.3,4.6,1c1.3,0.6,2.4,1.6,3.1,2.7c0.7,1.2,1.1,2.5,1.1,4
	c0,2.2-0.8,4-2.4,5.3c-1.6,1.3-3.8,2-6.5,2H137.7z M137.7,59.6h3.6c1.1,0,1.9-0.3,2.4-0.8c0.6-0.5,0.8-1.3,0.8-2.3
	c0-1.1-0.3-1.9-0.9-2.5c-0.6-0.6-1.4-1-2.3-1h-3.7V59.6z"/>
<polygon style="fill:#009DDA;" points="159.3,48.8 164.4,64.7 169.5,48.8 176.7,48.8 176.7,71.6 171.2,71.6 171.2,66.3 171.7,55.4 
	166.2,71.6 162.6,71.6 157.1,55.4 157.6,66.3 157.6,71.6 152.1,71.6 152.1,48.8 "/>
<polygon style="fill:#009DDA;" points="192.7,61.9 184.6,61.9 184.6,67.4 194.3,67.4 194.3,71.6 179.1,71.6 179.1,48.8 194.3,48.8 
	194.3,53.1 184.6,53.1 184.6,57.9 192.7,57.9 "/>
<polygon style="fill:#009DDA;" points="215.1,71.6 209.7,71.6 201.6,57.4 201.6,71.6 196.1,71.6 196.1,48.8 201.6,48.8 209.7,63 
	209.7,48.8 215.1,48.8 "/>
<polygon style="fill:#009DDA;" points="236,53.1 229.2,53.1 229.2,71.6 223.7,71.6 223.7,53.1 217,53.1 217,48.8 236,48.8 "/>
</svg>
